Taarak Mehta ka Ooltah Chasma - Episode of 10th August

Imdb:.http://www.imdb.com/title/tt1708446/

Provided by DesiRipper
Brought To You By JamMafia{TMRG} 


Details:.

General
Complete name : TMKOC 10th Aug~JamMafia.avi
Format : AVI
Format/Info : Audio Video Interleave
File size : 78.6 MiB
Duration : 19mn 51s
Overall bit rate : 553 Kbps

Video
ID : 0
Format : MPEG-4 Visual
Format profile : Advanced Simple@L5
Format settings, BVOP : 2
Format settings, QPel : No
Format settings, GMC : No warppoints
Format settings, Matrix : Default (H.263)
Codec ID : XVID
Codec ID/Hint : XviD
Duration : 19mn 51s
Bit rate : 419 Kbps
Width : 492 pixels
Height : 360 pixels
Display aspect ratio : 1.372
Frame rate : 25.000 fps
Color space : YUV
Chroma subsampling : 4:2:0
Bit depth : 8 bits
Scan type : Progressive
Compression mode : Lossy
Bits/(Pixel*Frame) : 0.095
Stream size : 59.5 MiB (76%)
Writing library : XviD 1.2.1 (UTC 2008-12-04)

Audio
ID : 1
Format : MPEG Audio
Format version : Version 1
Format profile : Layer 3
Mode : Joint stereo
Mode extension : MS Stereo
Codec ID : 55
Codec ID/Hint : MP3
Duration : 19mn 51s
Bit rate mode : Constant
Bit rate : 128 Kbps
Channel(s) : 2 channels
Sampling rate : 44.1 KHz
Compression mode : Lossy
Stream size : 18.2 MiB (23%)
Alignment : Aligned on interleaves
Interleave, duration : 160 ms (4.00 video frames)
Interleave, preload duration : 208 ms
Title : TMKOC 10th Aug~JamMafia.mp4_track_1__audio
Writing library : LAME3.99r
Encoding settings : -m j -V 4 -q 2 -lowpass 17 -b 128

ScreenShots 
http://img109.imageshack.us/img109/2963/tmkoc10thaugjammafias.jpg

No Ad Breaks..........

Greetz:.
It takes 5 hours to encode

And Just 5 seconds to say thank you............

Movie Encoded my JamMafia

JamMafia FB Page:

:-TO JOIN ‘TORRENT MAFIA RELEASE GROUPâ™ & TO CHECK ITS UPLOADS, CLICK BELOW:-
